<svg xmlns="http://www.w3.org/2000/svg" viewBox="0 0 320 88" fill="none" role="img" aria-label="0@0=B 0AB5@">
  <g transform="translate(4, 6)">
    <path d="M36 8 L56 22 V44 H16 V22 Z" stroke="#FFFFFF" stroke-width="2.5" stroke-linejoin="round" fill="none"/>
    <path d="M16 22 L36 8 L56 22" stroke="#FFFFFF" stroke-width="2.5" stroke-linecap="round" stroke-linejoin="round" fill="none"/>
    <path d="M28 30 C28 26 32 24 36 28 C40 32 44 30 44 34 C44 38 36 42 36 42 C36 42 28 38 28 34 Z" fill="#1E88E5"/>
    <path d="M34 36 L38 40 L42 32" stroke="#FFFFFF" stroke-width="1.5" stroke-linecap="round" stroke-linejoin="round" fill="none"/>
    <rect x="30" y="38" width="12" height="3" rx="1" fill="#FFFFFF" transform="rotate(-45 36 39.5)"/>
    <path d="M46 28 L50 36 L42 36 Z" fill="#F9A826"/>
  </g>
  <text x="72" y="34" font-family="system-ui, -apple-system, 'Segoe UI', sans-serif" font-size="22" font-weight="800" fill="#FFFFFF" letter-spacing="0.5"> "</text>
  <text x="72" y="58" font-family="system-ui, -apple-system, 'Segoe UI', sans-serif" font-size="22" font-weight="800" fill="#1E88E5" letter-spacing="0.5">!" </text>
  <text x="72" y="76" font-family="system-ui, -apple-system, 'Segoe UI', sans-serif" font-size="9" font-weight="600" fill="#94a3b8" letter-spacing="0.3">!0=B5E=8: " -;5:B@8: " 0AB5@ =0 G0A</text>
</svg>
